# xmcd
#
# Track frame offsets: 
#        150
#        12547
#        25934
#        46069
#        59981
#        69659
#        78922
#        91185
#        101457
#        112465
#        127029
#        141283
#        145844
#        164724
#        179569
#        193662
#        213358
#        231282
#        251867
#        266799
#        280857
#        295890
#        307451
#        310547
#
# Disc length: 4427 seconds
#
# Revision: 0
# Processed by: cddbd v1.5.2PL0 Copyright (c) Steve Scherf et al.
# Submitted via: ExactAudioCopy v0.99pb3
#
DISCID=82114918
DTITLE=Various Artist - Into The Valley Of The Beatmolls and Organ Radio 9
DYEAR=2000
DGENRE=Org
TTITLE0=Beatmolls - Wendy Wannabe
TTITLE1=Beatmolls - Ezy
TTITLE2=Beatmolls - Apathy In The UK
TTITLE3=Beatmolls - Universal Whore
TTITLE4=Mogul - I'm A Can Fan
TTITLE5=Mogul - Lips
TTITLE6=Mogul - Jonni
TTITLE7=Morgan's Baby - Molly
TTITLE8=Mogul - Candi Is A Can Fan
TTITLE9=Morgan's Baby - Creepy Tina
TTITLE10=Remote Control - Starfucker
TTITLE11=Sack Trick - No Tomatoes For Me, Thanks
TTITLE12=Fighting Cocks - Dance Of The Fighting Cocks
TTITLE13=Charlie's Angels - I Don't Wanna Love You (live at The Royal 
TTITLE13=Albert Hall on the PJ and Duncan Tour)
TTITLE14=Amino Acids From Outer Space - Why2K
TTITLE15=Anti-Marilyn - Wannabe
TTITLE16=Globalistic - Hymn
TTITLE17=The Clears - The Assembly
TTITLE18=Map - Mongolia (No Rent mix)
TTITLE19=The Lollies - Quite Frankly I Think I Could Do A Better Job O
TTITLE19=f Being Famous
TTITLE20=Trigger - Dizzy
TTITLE21=Tommie Griggz - Ritalin
TTITLE22=Feeling Stressed?
TTITLE23=T.F.M. - The Duck Is Evil (original 216BPM version)
EXTD=
EXTT0=
EXTT1=
EXTT2=
EXTT3=
EXTT4=
EXTT5=
EXTT6=
EXTT7=
EXTT8=
EXTT9=
EXTT10=
EXTT11=
EXTT12=
EXTT13=
EXTT14=
EXTT15=
EXTT16=
EXTT17=
EXTT18=
EXTT19=
EXTT20=
EXTT21=
EXTT22=
EXTT23=
PLAYORDER=
